<?xml version="1.0" encoding="utf-8"?><svg viewBox="0 0 16 17" xmlns="http://www.w3.org/2000/svg" xmlns:xlink="http://www.w3.org/1999/xlink"><style>:root>svg{display:none}:root>svg:target{display:block}</style><svg fill="none" viewBox="0 0 16 17" id="black" xmlns="http://www.w3.org/2000/svg"><path d="M2.666 3.167h10.667c.733 0 1.333.6 1.333 1.333v8c0 .733-.6 1.333-1.333 1.333H2.666c-.733 0-1.333-.6-1.333-1.333v-8c0-.733.6-1.333 1.333-1.333z" stroke="#272727" stroke-linecap="round" stroke-linejoin="round"/><path d="M14.666 4.5L8 9.167 1.333 4.5" stroke="#272727" stroke-linecap="round" stroke-linejoin="round"/></svg><svg fill="none" viewBox="0 0 16 17" id="white" xmlns="http://www.w3.org/2000/svg"><path d="M2.666 3.167h10.667c.733 0 1.333.6 1.333 1.333v8c0 .733-.6 1.333-1.333 1.333H2.666c-.733 0-1.333-.6-1.333-1.333v-8c0-.733.6-1.333 1.333-1.333z" stroke="#fff" stroke-linecap="round" stroke-linejoin="round"/><path d="M14.666 4.5L8 9.167 1.333 4.5" stroke="#fff" stroke-linecap="round" stroke-linejoin="round"/></svg></svg>